<svg width="24" height="24" viewBox="0 0 24 24" fill="none" xmlns="http://www.w3.org/2000/svg">
<path d="M15.005 4.00913L15.085 3.26342V3.26342L15.005 4.00913ZM16.4342 5.60348L17.1842 5.60511V5.60511L16.4342 5.60348ZM8.99495 4.00913L9.07498 4.75485V4.75485L8.99495 4.00913ZM7.56568 5.60348L8.31568 5.60185V5.60185L7.56568 5.60348ZM14.4 17.55C14.8142 17.55 15.15 17.2143 15.15 16.8C15.15 16.3858 14.8142 16.05 14.4 16.05V16.8V17.55ZM9.59998 16.05C9.18576 16.05 8.84998 16.3858 8.84998 16.8C8.84998 17.2143 9.18576 17.55 9.59998 17.55V16.8V16.05ZM4.64518 15.8344L5.38784 15.7297L4.64518 15.8344ZM19.3548 15.8344L20.0975 15.9391V15.9391L19.3548 15.8344ZM19.6932 13.4344L18.9505 13.3297V13.3297L19.6932 13.4344ZM4.30681 13.4344L3.56415 13.5391L4.30681 13.4344ZM7.63046 6V6.75H16.3695V6V5.25H7.63046V6ZM16.3695 6V6.75C16.9633 6.75 17.4133 7.28573 17.3108 7.87055L18.0495 8L18.7883 8.12945C19.0516 6.62664 17.8952 5.25 16.3695 5.25V6ZM7.63046 6V5.25C6.10476 5.25 4.94836 6.62664 5.21169 8.12945L5.95043 8L6.68918 7.87055C6.5867 7.28573 7.03672 6.75 7.63046 6.75V6ZM9.39284 4V4.75H14.6071V4V3.25H9.39284V4ZM14.6071 4V4.75C14.8358 4.75 14.8899 4.7511 14.9249 4.75485L15.005 4.00913L15.085 3.26342C14.9498 3.2489 14.7954 3.25 14.6071 3.25V4ZM16.4 6L17.1455 6.08165C17.166 5.89447 17.1839 5.74112 17.1842 5.60511L16.4342 5.60348L15.6842 5.60184C15.6842 5.63704 15.6794 5.69101 15.6545 5.91835L16.4 6ZM15.005 4.00913L14.9249 4.75485C15.3575 4.80127 15.6852 5.16681 15.6842 5.60185L16.4342 5.60348L17.1842 5.60511C17.1868 4.40235 16.2809 3.39176 15.085 3.26342L15.005 4.00913ZM9.39284 4V3.25C9.20454 3.25 9.05015 3.2489 8.91492 3.26342L8.99495 4.00913L9.07498 4.75485C9.10998 4.7511 9.16411 4.75 9.39284 4.75V4ZM7.59991 6L8.34546 5.91835C8.32056 5.69098 8.31575 5.63705 8.31568 5.60185L7.56568 5.60348L6.81568 5.60511C6.81597 5.74112 6.83387 5.89446 6.85437 6.08165L7.59991 6ZM8.99495 4.00913L8.91492 3.26342C7.71903 3.39176 6.81307 4.40235 6.81568 5.60511L7.56568 5.60348L8.31568 5.60185C8.31473 5.16681 8.64242 4.80127 9.07498 4.75485L8.99495 4.00913ZM14.4 16.8V16.05H9.59998V16.8V17.55H14.4V16.8ZM9.33792 8V8.75H14.6621V8V7.25H9.33792V8ZM19.6932 13.4344L18.9505 13.3297L18.6122 15.7297L19.3548 15.8344L20.0975 15.9391L20.4358 13.5391L19.6932 13.4344ZM14.3237 20V19.25H9.67629V20V20.75H14.3237V20ZM4.64518 15.8344L5.38784 15.7297L5.04946 13.3297L4.30681 13.4344L3.56415 13.5391L3.90253 15.9391L4.64518 15.8344ZM9.67629 20V19.25C8.59905 19.25 7.85801 19.2487 7.29403 19.1811C6.74776 19.1155 6.46476 18.9968 6.26098 18.828L5.78267 19.4057L5.30436 19.9834C5.81834 20.409 6.42352 20.5874 7.11531 20.6704C7.78939 20.7513 8.63628 20.75 9.67629 20.75V20ZM4.64518 15.8344L3.90253 15.9391C4.03956 16.911 4.15117 17.7138 4.32746 18.3436C4.51052 18.9976 4.78558 19.5539 5.30436 19.9834L5.78267 19.4057L6.26098 18.828C6.06201 18.6633 5.90824 18.4262 5.77195 17.9393C5.62889 17.4282 5.53063 16.7424 5.38784 15.7297L4.64518 15.8344ZM19.3548 15.8344L18.6122 15.7297C18.4694 16.7424 18.3711 17.4282 18.2281 17.9393C18.0918 18.4262 17.938 18.6633 17.739 18.828L18.2173 19.4057L18.6956 19.9834C19.2144 19.5539 19.4895 18.9976 19.6725 18.3436C19.8488 17.7138 19.9604 16.911 20.0975 15.9391L19.3548 15.8344ZM14.3237 20V20.75C15.3637 20.75 16.2106 20.7513 16.8847 20.6704C17.5765 20.5874 18.1817 20.409 18.6956 19.9834L18.2173 19.4057L17.739 18.828C17.5352 18.9968 17.2522 19.1155 16.706 19.1811C16.142 19.2487 15.4009 19.25 14.3237 19.25V20ZM14.6621 8V8.75C16.0334 8.75 16.9866 8.75157 17.6953 8.84584C18.388 8.93796 18.7117 9.10378 18.9198 9.32858L19.4701 8.81906L20.0205 8.30954C19.4703 7.71528 18.74 7.47157 17.8931 7.35893C17.0623 7.24843 15.9906 7.25 14.6621 7.25V8ZM19.6932 13.4344L20.4358 13.5391C20.6109 12.2974 20.7559 11.283 20.7498 10.4791C20.7435 9.64904 20.5777 8.91141 20.0205 8.30954L19.4701 8.81906L18.9198 9.32858C19.1209 9.54577 19.245 9.85038 19.2499 10.4905C19.2549 11.1568 19.1323 12.0406 18.9505 13.3297L19.6932 13.4344ZM9.33792 8V7.25C8.0094 7.25 6.93771 7.24843 6.10691 7.35893C5.26004 7.47157 4.52966 7.71528 3.9795 8.30954L4.52985 8.81906L5.08021 9.32858C5.28833 9.10378 5.61205 8.93796 6.30468 8.84584C7.01338 8.75157 7.96658 8.75 9.33792 8.75V8ZM4.30681 13.4344L5.04946 13.3297C4.86771 12.0405 4.74509 11.1568 4.75015 10.4905C4.75501 9.85038 4.87913 9.54577 5.08021 9.32858L4.52985 8.81906L3.9795 8.30954C3.4223 8.91141 3.25649 9.64904 3.25019 10.4791C3.24409 11.283 3.38908 12.2974 3.56415 13.5391L4.30681 13.4344Z" fill="black"/>
</svg>
