<svg width="25" height="24" viewBox="0 0 25 24" fill="none" xmlns="http://www.w3.org/2000/svg">
<g clip-path="url(#clip0_5_140)">
<path d="M18.0547 6.75H4.55469C3.72626 6.75 3.05469 7.42157 3.05469 8.25V18.75C3.05469 19.5784 3.72626 20.25 4.55469 20.25H18.0547C18.8831 20.25 19.5547 19.5784 19.5547 18.75V8.25C19.5547 7.42157 18.8831 6.75 18.0547 6.75Z" fill="#121217"/>
<path fill-rule="evenodd" clip-rule="evenodd" d="M21.0547 3.75H6.80469C6.39047 3.75 6.05469 4.08579 6.05469 4.5C6.05469 4.91421 6.39047 5.25 6.80469 5.25H21.0547V16.5C21.0547 16.9142 21.3905 17.25 21.8047 17.25C22.2189 17.25 22.5547 16.9142 22.5547 16.5V5.25C22.5547 4.42157 21.8831 3.75 21.0547 3.75Z" fill="#121217"/>
</g>
<defs>
<clipPath id="clip0_5_140">
<rect width="24" height="24" fill="white" transform="translate(0.804688)"/>
</clipPath>
</defs>
</svg>
