<svg width="16" height="16" viewBox="0 0 16 16" fill="none" xmlns="http://www.w3.org/2000/svg">
<path d="M9.37023 1.98964L3.72432 7.96564C3.51114 8.19258 3.30483 8.63958 3.26357 8.94903L3.00913 11.1771C2.91973 11.9817 3.49738 12.5319 4.2951 12.3943L6.50945 12.0161C6.81891 11.9611 7.25216 11.7342 7.46534 11.5004L13.1113 5.52435C14.0878 4.49282 14.5279 3.31688 13.0081 1.87961C11.4952 0.456097 10.3467 0.958109 9.37023 1.98964Z" stroke="#1F2026" stroke-miterlimit="10" stroke-linecap="round" stroke-linejoin="round"/>
<path d="M8.42871 2.98779C8.72442 4.88581 10.2648 6.33683 12.1766 6.52938" stroke="#1F2026" stroke-miterlimit="10" stroke-linecap="round" stroke-linejoin="round"/>
<mask id="path-3-inside-1_109_2619" fill="white">
<path d="M14.5 15H2.5C2.22667 15 2 14.7733 2 14.5C2 14.2267 2.22667 14 2.5 14H14.5C14.7733 14 15 14.2267 15 14.5C15 14.7733 14.7733 15 14.5 15Z"/>
</mask>
<path d="M14.5 15H2.5C2.22667 15 2 14.7733 2 14.5C2 14.2267 2.22667 14 2.5 14H14.5C14.7733 14 15 14.2267 15 14.5C15 14.7733 14.7733 15 14.5 15Z" fill="#1F2026"/>
<path d="M14.5 15V14H2.5V15V16H14.5V15ZM2.5 15V14C2.77895 14 3 14.221 3 14.5H2H1C1 15.3256 1.67438 16 2.5 16V15ZM2 14.5H3C3 14.779 2.77895 15 2.5 15V14V13C1.67438 13 1 13.6744 1 14.5H2ZM2.5 14V15H14.5V14V13H2.5V14ZM14.5 14V15C14.221 15 14 14.779 14 14.5H15H16C16 13.6744 15.3256 13 14.5 13V14ZM15 14.5H14C14 14.221 14.221 14 14.5 14V15V16C15.3256 16 16 15.3256 16 14.5H15Z" fill="#1F2026" mask="url(#path-3-inside-1_109_2619)"/>
</svg>
