<svg width="24" height="24" viewBox="0 0 24 24" fill="none" xmlns="http://www.w3.org/2000/svg">
<path d="M20.5348 3.46447C19.0704 2 16.7133 2 11.9993 2C7.28525 2 4.92823 2 3.46377 3.46447C2.70628 4.22195 2.3406 5.21824 2.16406 6.65598C2.69473 6.06532 3.33236 5.57328 4.04836 5.20846C4.82984 4.81027 5.66664 4.6488 6.59316 4.5731C7.48829 4.49997 8.58971 4.49998 9.93646 4.5H14.0621C15.4089 4.49998 16.5103 4.49997 17.4054 4.5731C18.332 4.6488 19.1688 4.81027 19.9502 5.20846C20.6662 5.57328 21.3039 6.06532 21.8345 6.65598C21.658 5.21824 21.2923 4.22195 20.5348 3.46447Z" fill="#1F2026"/>
<path fill-rule="evenodd" clip-rule="evenodd" d="M2.54497 8.73005C2 9.79961 2 11.1997 2 14C2 16.8003 2 18.2004 2.54497 19.27C3.02433 20.2108 3.78924 20.9757 4.73005 21.455C5.79961 22 7.19974 22 10 22H14C16.8003 22 18.2004 22 19.27 21.455C20.2108 20.9757 20.9757 20.2108 21.455 19.27C22 18.2004 22 16.8003 22 14C22 11.1997 22 9.79961 21.455 8.73005C20.9757 7.78924 20.2108 7.02433 19.27 6.54497C18.2004 6 16.8003 6 14 6H10C7.19974 6 5.79961 6 4.73005 6.54497C3.78924 7.02433 3.02433 7.78924 2.54497 8.73005ZM12 9.25C12.2126 9.25 12.4152 9.34024 12.5575 9.49828L16.5575 13.9427C16.8346 14.2506 16.8096 14.7248 16.5017 15.0019C16.1938 15.279 15.7196 15.2541 15.4425 14.9462L12.75 11.9545L12.75 18C12.75 18.4142 12.4142 18.75 12 18.75C11.5858 18.75 11.25 18.4142 11.25 18L11.25 11.9545L8.55748 14.9462C8.28038 15.2541 7.80617 15.279 7.49828 15.0019C7.1904 14.7248 7.16544 14.2506 7.44254 13.9427L11.4425 9.49828C11.5848 9.34024 11.7874 9.25 12 9.25Z" fill="#1F2026"/>
</svg>
