<svg width="24" height="24" viewBox="0 0 24 24" fill="none" xmlns="http://www.w3.org/2000/svg">
<path d="M2 15C2 17.8284 2 19.2426 2.87868 20.1213C3.75736 21 5.17157 21 8 21H16C18.8284 21 20.2426 21 21.1213 20.1213C22 19.2426 22 17.8284 22 15" stroke="white" stroke-width="2" stroke-linecap="round" stroke-linejoin="round"/>
<path d="M11 15C11 15.5523 11.4477 16 12 16C12.5523 16 13 15.5523 13 15L12 15H11ZM12 3L12.7071 2.29289C12.5196 2.10536 12.2652 2 12 2C11.7348 2 11.4804 2.10536 11.2929 2.29289L12 3ZM5.29289 8.29289C4.90237 8.68342 4.90237 9.31658 5.29289 9.70711C5.68342 10.0976 6.31658 10.0976 6.70711 9.70711L6 9L5.29289 8.29289ZM17.2929 9.70711C17.6834 10.0976 18.3166 10.0976 18.7071 9.70711C19.0976 9.31658 19.0976 8.68342 18.7071 8.29289L18 9L17.2929 9.70711ZM12 15L13 15L13 3L12 3L11 3L11 15H12ZM12 3L11.2929 2.29289L5.29289 8.29289L6 9L6.70711 9.70711L12.7071 3.70711L12 3ZM12 3L11.2929 3.70711L17.2929 9.70711L18 9L18.7071 8.29289L12.7071 2.29289L12 3Z" fill="white"/>
</svg>
