<svg width="32" height="32" viewBox="0 0 32 32" fill="none" xmlns="http://www.w3.org/2000/svg">
<rect width="32" height="32" rx="8" fill="#FEF7E7"/>
<path d="M6 10.9497C6 10.0672 6 9.62595 6.06935 9.25839C6.37464 7.64031 7.64031 6.37464 9.25839 6.06935C9.62595 6 10.0672 6 10.9497 6C11.3364 6 11.5298 6 11.7156 6.01738C12.5167 6.09229 13.2765 6.40704 13.8959 6.92051C14.0396 7.03961 14.1763 7.17633 14.4497 7.44975L15 8C15.8158 8.81578 16.2237 9.22367 16.7121 9.49543C16.9804 9.64471 17.2651 9.7626 17.5604 9.84678C18.0979 10 18.6747 10 19.8284 10H20.2021C22.8345 10 24.1506 10 25.0062 10.7695C25.0849 10.8402 25.1598 10.9151 25.2305 10.9938C26 11.8494 26 13.1655 26 15.7979V18C26 21.7712 26 23.6569 24.8284 24.8284C23.6569 26 21.7712 26 18 26H14C10.2288 26 8.34315 26 7.17157 24.8284C6 23.6569 6 21.7712 6 18V10.9497Z" fill="#FAD515"/>
<path d="M22 14L17 14" stroke="white" stroke-width="1.5" stroke-linecap="round"/>
</svg>
