<svg width="24" height="24" viewBox="0 0 24 24" fill="none" xmlns="http://www.w3.org/2000/svg">
<path d="M20.5348 3.46447C19.0704 2 16.7133 2 11.9993 2C7.28525 2 4.92823 2 3.46377 3.46447C2.70628 4.22195 2.3406 5.21824 2.16406 6.65598C2.69473 6.06532 3.33236 5.57328 4.04836 5.20846C4.82984 4.81027 5.66664 4.6488 6.59316 4.5731C7.48829 4.49997 8.58971 4.49998 9.93646 4.5H14.0621C15.4089 4.49998 16.5103 4.49997 17.4054 4.5731C18.332 4.6488 19.1688 4.81027 19.9502 5.20846C20.6662 5.57328 21.3039 6.06532 21.8345 6.65598C21.658 5.21824 21.2923 4.22195 20.5348 3.46447Z" fill="#1F2026"/>
<path fill-rule="evenodd" clip-rule="evenodd" d="M2.54497 8.73005C2 9.79961 2 11.1997 2 14C2 16.8003 2 18.2004 2.54497 19.27C3.02433 20.2108 3.78924 20.9757 4.73005 21.455C5.79961 22 7.19974 22 10 22H14C16.8003 22 18.2004 22 19.27 21.455C20.2108 20.9757 20.9757 20.2108 21.455 19.27C22 18.2004 22 16.8003 22 14C22 11.1997 22 9.79961 21.455 8.73005C20.9757 7.78924 20.2108 7.02433 19.27 6.54497C18.2004 6 16.8003 6 14 6H10C7.19974 6 5.79961 6 4.73005 6.54497C3.78924 7.02433 3.02433 7.78924 2.54497 8.73005ZM12 18.75C12.2126 18.75 12.4152 18.6598 12.5575 18.5017L16.5575 14.0573C16.8346 13.7494 16.8096 13.2752 16.5017 12.9981C16.1938 12.721 15.7196 12.7459 15.4425 13.0538L12.75 16.0455L12.75 10C12.75 9.58579 12.4142 9.25 12 9.25C11.5858 9.25 11.25 9.58579 11.25 10L11.25 16.0455L8.55748 13.0538C8.28038 12.7459 7.80617 12.721 7.49828 12.9981C7.1904 13.2752 7.16544 13.7494 7.44254 14.0573L11.4425 18.5017C11.5848 18.6598 11.7874 18.75 12 18.75Z" fill="#1F2026"/>
</svg>
