<svg width="24" height="24" viewBox="0 0 24 24" fill="none" xmlns="http://www.w3.org/2000/svg">
<path fill-rule="evenodd" clip-rule="evenodd" d="M7.905 1.08997C8.121 1.17497 8.316 1.31497 8.493 1.49997C8.788 1.80597 9.037 2.24397 9.227 2.76297C9.418 3.28497 9.542 3.86297 9.589 4.44297C10.2186 4.08677 10.9174 3.86989 11.638 3.80697L11.689 3.80297C12.559 3.73297 13.419 3.88997 14.169 4.27697C14.27 4.32997 14.369 4.38697 14.466 4.44697C14.516 3.87797 14.638 3.31297 14.826 2.80297C15.016 2.28297 15.265 1.84597 15.559 1.53897C15.7233 1.36123 15.9243 1.22134 16.148 1.12897C16.405 1.02897 16.678 1.01097 16.944 1.08697C17.345 1.20097 17.689 1.45497 17.96 1.82397C18.208 2.16097 18.394 2.59297 18.521 3.11097C18.751 4.04497 18.791 5.27397 18.636 6.75597L18.689 6.79597L18.715 6.81497C19.472 7.39097 19.999 8.21197 20.278 9.16497C20.713 10.652 20.494 12.32 19.744 13.253L19.726 13.274L19.728 13.277C20.145 14.039 20.398 14.844 20.452 15.677L20.454 15.707C20.518 16.772 20.254 17.844 19.64 18.897L19.633 18.907L19.643 18.931C20.115 20.088 20.263 21.253 20.081 22.417L20.075 22.456C20.0468 22.626 19.9523 22.7779 19.8123 22.8784C19.6723 22.9789 19.4981 23.0197 19.328 22.992C19.2438 22.9788 19.163 22.9492 19.0902 22.9047C19.0175 22.8603 18.9542 22.802 18.904 22.733C18.8539 22.6641 18.8178 22.586 18.7979 22.5031C18.778 22.4202 18.7746 22.3342 18.788 22.25C18.955 21.217 18.798 20.181 18.308 19.127C18.2623 19.0291 18.242 18.9212 18.249 18.8133C18.256 18.7055 18.29 18.6012 18.348 18.51L18.352 18.504C18.956 17.58 19.206 16.674 19.152 15.784C19.106 15.005 18.827 14.24 18.352 13.511C18.2596 13.3692 18.2267 13.1969 18.2604 13.0311C18.2941 12.8653 18.3916 12.7194 18.532 12.625L18.541 12.619C18.784 12.46 19.008 12.054 19.121 11.499C19.2457 10.8427 19.2131 10.1662 19.026 9.52497C18.821 8.82497 18.446 8.24097 17.921 7.84197C17.326 7.38797 16.538 7.16897 15.541 7.23197C15.4106 7.24045 15.2807 7.20962 15.1681 7.14349C15.0554 7.07735 14.9651 6.97894 14.909 6.86097C14.595 6.19597 14.137 5.71997 13.566 5.42497C13.0178 5.15137 12.4041 5.03638 11.794 5.09297C10.549 5.19197 9.451 5.89397 9.124 6.77897C9.07774 6.90353 8.99453 7.01098 8.88552 7.08693C8.7765 7.16289 8.64687 7.20372 8.514 7.20397C7.447 7.20597 6.621 7.45597 6.017 7.90697C5.495 8.29697 5.139 8.84197 4.951 9.49497C4.78088 10.1096 4.75759 10.7557 4.883 11.381C4.995 11.939 5.214 12.401 5.465 12.65L5.473 12.657C5.685 12.864 5.73 13.187 5.582 13.442C5.222 14.064 4.953 14.991 4.909 15.882C4.859 16.9 5.095 17.784 5.628 18.418L5.644 18.437C5.72444 18.5307 5.77617 18.6456 5.79302 18.768C5.80987 18.8904 5.79111 19.015 5.739 19.127C5.163 20.363 4.986 21.379 5.177 22.179C5.21134 22.3453 5.17939 22.5185 5.08797 22.6617C4.99655 22.8048 4.85288 22.9067 4.68752 22.9455C4.52216 22.9843 4.34817 22.9571 4.20258 22.8696C4.057 22.7821 3.95131 22.6412 3.908 22.477C3.665 21.459 3.83 20.293 4.381 18.979L4.395 18.944L4.387 18.932C4.1162 18.532 3.91408 18.0895 3.789 17.623L3.784 17.604C3.63222 17.0219 3.57249 16.4196 3.607 15.819C3.651 14.909 3.885 13.977 4.229 13.229L4.241 13.203L4.239 13.201C3.946 12.783 3.729 12.248 3.609 11.656L3.604 11.632C3.43867 10.8062 3.47053 9.95309 3.697 9.14197C3.959 8.22697 4.474 7.44097 5.233 6.87297C5.293 6.82797 5.356 6.78297 5.419 6.74097C5.26 5.24797 5.3 4.01097 5.531 3.07097C5.658 2.55297 5.845 2.12097 6.093 1.78397C6.363 1.41597 6.707 1.16197 7.108 1.04697C7.374 0.970969 7.648 0.987969 7.905 1.08897V1.08997ZM12.021 10.18C12.957 10.18 13.821 10.493 14.467 11.035C15.097 11.562 15.472 12.27 15.472 12.975C15.472 13.863 15.066 14.555 14.339 14.997C13.719 15.372 12.888 15.554 11.936 15.554C10.927 15.554 10.065 15.295 9.443 14.82C8.826 14.35 8.48 13.69 8.48 12.975C8.48 12.268 8.878 11.558 9.53601 11.029C10.204 10.492 11.086 10.18 12.021 10.18ZM12.021 11.076C11.3272 11.0699 10.6519 11.299 10.105 11.726C9.644 12.096 9.383 12.561 9.383 12.976C9.383 13.404 9.593 13.805 9.993 14.11C10.448 14.457 11.117 14.658 11.936 14.658C12.735 14.658 13.409 14.511 13.868 14.232C14.331 13.952 14.568 13.546 14.568 12.975C14.568 12.552 14.322 12.085 13.885 11.719C13.401 11.314 12.745 11.076 12.021 11.076ZM12.683 12.286L12.687 12.29C12.807 12.441 12.782 12.66 12.631 12.78L12.339 13.01V13.456C12.3385 13.5553 12.2986 13.6503 12.2281 13.7202C12.1576 13.7901 12.0623 13.8292 11.963 13.829C11.8637 13.8292 11.7684 13.7901 11.6979 13.7202C11.6274 13.6503 11.5875 13.5553 11.587 13.456V12.996L11.316 12.778C11.2803 12.7493 11.2505 12.7139 11.2286 12.6737C11.2066 12.6335 11.1928 12.5894 11.1879 12.5438C11.1831 12.4982 11.1873 12.4522 11.2004 12.4083C11.2134 12.3644 11.2351 12.3235 11.264 12.288C11.323 12.2161 11.408 12.1705 11.5005 12.1609C11.593 12.1514 11.6855 12.1787 11.758 12.237L11.973 12.409L12.193 12.235C12.2652 12.1779 12.3568 12.1513 12.4484 12.1609C12.5399 12.1704 12.6241 12.2153 12.683 12.286ZM7.643 10.367C8.121 10.367 8.51 10.757 8.51 11.238C8.51027 11.4685 8.419 11.6898 8.25625 11.8531C8.09349 12.0164 7.87257 12.1084 7.642 12.109C7.41179 12.1082 7.19127 12.0162 7.02876 11.8531C6.86625 11.69 6.775 11.4692 6.775 11.239C6.77447 11.0084 6.86549 10.7871 7.02805 10.6236C7.19062 10.46 7.41244 10.3678 7.643 10.367ZM16.349 10.367C16.829 10.367 17.217 10.757 17.217 11.238C17.2173 11.4685 17.126 11.6898 16.9632 11.8531C16.8005 12.0164 16.5796 12.1084 16.349 12.109C16.1188 12.1082 15.8983 12.0162 15.7358 11.8531C15.5733 11.69 15.482 11.4692 15.482 11.239C15.4815 11.0084 15.5725 10.7871 15.7351 10.6236C15.8976 10.46 16.1184 10.3678 16.349 10.367ZM7.44 2.29997L7.437 2.30197C7.32116 2.35235 7.22223 2.43496 7.152 2.53997L7.147 2.54597C7.009 2.73497 6.889 3.01297 6.799 3.37797C6.629 4.06997 6.583 5.00897 6.675 6.15997C7.105 6.03197 7.574 5.95197 8.079 5.92297L8.089 5.92197L8.108 5.88797C8.154 5.80597 8.203 5.72697 8.256 5.64897C8.379 4.87797 8.278 3.95697 8.003 3.20497C7.869 2.84097 7.706 2.55497 7.55 2.39197C7.5178 2.35808 7.48191 2.32789 7.443 2.30197L7.44 2.29997ZM16.614 2.33997L16.612 2.34097C16.5731 2.36689 16.5372 2.39708 16.505 2.43097C16.349 2.59397 16.185 2.88097 16.052 3.24497C15.762 4.03897 15.665 5.02097 15.822 5.81697L15.88 5.91397L15.888 5.92797H15.918C16.4143 5.9281 16.908 5.99949 17.384 6.13997C17.47 5.01597 17.422 4.09697 17.256 3.41797C17.166 3.05297 17.046 2.77497 16.907 2.58597L16.903 2.57997C16.8329 2.47459 16.734 2.39162 16.618 2.34097H16.614V2.33997Z" fill="#1F2026"/>
</svg>
