<svg width="24" height="24" viewBox="0 0 24 24" fill="none" xmlns="http://www.w3.org/2000/svg">
<path fill-rule="evenodd" clip-rule="evenodd" d="M17 3.40002C17.2583 3.40002 17.4875 3.56528 17.5692 3.81029L18.2243 5.77568L20.1897 6.43081C20.4347 6.51248 20.6 6.74177 20.6 7.00002C20.6 7.25828 20.4347 7.48757 20.1897 7.56923L18.2243 8.22437L17.5692 10.1898C17.4875 10.4348 17.2583 10.6 17 10.6C16.7417 10.6 16.5125 10.4348 16.4308 10.1898L15.7757 8.22437L13.8103 7.56923C13.5653 7.48757 13.4 7.25828 13.4 7.00002C13.4 6.74177 13.5653 6.51248 13.8103 6.43081L15.7757 5.77568L16.4308 3.81029C16.5125 3.56528 16.7417 3.40002 17 3.40002Z" fill="#1F2026"/>
<path fill-rule="evenodd" clip-rule="evenodd" d="M17 12C17.5523 12 18 12.4477 18 13V18C18 18.5523 17.5523 19 17 19C16.4477 19 16 18.5523 16 18V13C16 12.4477 16.4477 12 17 12Z" fill="#1F2026"/>
<path fill-rule="evenodd" clip-rule="evenodd" d="M7.14885 6.72787C7.27063 6.29729 7.66363 6.00002 8.1111 6.00002H9.88888C10.3364 6.00002 10.7294 6.2973 10.8511 6.72788L13.9621 17.7279C14.1124 18.2593 13.8035 18.812 13.272 18.9623C12.7406 19.1126 12.1879 18.8036 12.0376 18.2722L9.13247 8.00002H8.8675L5.96225 18.2722C5.81195 18.8036 5.25928 19.1126 4.72784 18.9623C4.19641 18.812 3.88744 18.2593 4.03774 17.7279L7.14885 6.72787Z" fill="#1F2026"/>
<path fill-rule="evenodd" clip-rule="evenodd" d="M5 15C5 14.4477 5.44771 14 6 14H12C12.5523 14 13 14.4477 13 15C13 15.5523 12.5523 16 12 16H6C5.44771 16 5 15.5523 5 15Z" fill="#1F2026"/>
</svg>
